<svg xmlns="http://www.w3.org/2000/svg"  viewBox="0 0 50 50" width="50px" height="50px"><path d="M 41.707031 13.792969 L 30.207031 2.292969 C 30.019531 2.105469 29.765625 2 29.5 2 L 11.492188 2 C 9.566406 2 8 3.5625 8 5.480469 L 8 43.902344 C 8 46.160156 9.84375 48 12.113281 48 L 37.886719 48 C 40.15625 48 42 46.160156 42 43.902344 L 42 14.5 C 42 14.234375 41.894531 13.980469 41.707031 13.792969 Z M 17 37 C 16.449219 37 16 36.550781 16 36 C 16 35.449219 16.449219 35 17 35 C 17.550781 35 18 35.449219 18 36 C 18 36.550781 17.550781 37 17 37 Z M 17 32 C 16.449219 32 16 31.550781 16 31 C 16 30.449219 16.449219 30 17 30 C 17.550781 30 18 30.449219 18 31 C 18 31.550781 17.550781 32 17 32 Z M 17 27 C 16.449219 27 16 26.550781 16 26 C 16 25.449219 16.449219 25 17 25 C 17.550781 25 18 25.449219 18 26 C 18 26.550781 17.550781 27 17 27 Z M 33 37 L 21 37 L 21 35 L 33 35 Z M 33 32 L 21 32 L 21 30 L 33 30 Z M 33 27 L 21 27 L 21 25 L 33 25 Z M 31.667969 14 C 30.746094 14 30 13.253906 30 12.332031 L 30 4.914063 L 39.085938 14 Z"/></svg>